# AST/ASF file generated using VICON BodyLanguage
# -----------------------------------------------
:version 1.10
:name VICON
:units
  mass 1.0
  length 0.45
  angle deg
:documentation
   .ast/.asf automatically generated from VICON data using
   VICON BodyBuilder and BodyLanguage model FoxedUp or BRILLIANT.MOD
:root
   order TX TY TZ RX RY RZ
   axis XYZ
   position 0 0 0  
   orientation 0 0 0 
:bonedata
  begin
     id 1 
     name lhipjoint
     direction 0.623415 -0.642378 0.445763 
     length 2.49859 
     axis 0 0 0  XYZ
  end
  begin
     id 2 
     name lfemur
     direction 0.34202 -0.939693 0  
     length 6.69689  
     axis 0 0 20  XYZ
    dof rx ry rz
    limits (-160.0 20.0)
           (-70.0 70.0)
           (-60.0 70.0)
  end
  begin
     id 3 
     name ltibia
     direction 0.34202 -0.939693 0   
     length 7.37574   
     axis 0 0 20   XYZ
    dof rx
    limits (-10.0 170.0)
  end
  begin
     id 4 
     name lfoot
     direction 0.084323 -0.231675 0.969132   
     length 2.09111   
     axis -90 7.62852e-016 20   XYZ
    dof rx rz
    limits (-45.0 90.0)
           (-70.0 20.0)
  end
  begin
     id 5 
     name ltoes
     direction 1.5357e-011 -4.21957e-011 1   
     length 1.04989   
     axis -90 7.62852e-016 20   XYZ
    dof rx
    limits (-90.0 20.0)
  end
  begin
     id 6 
     name rhipjoint
     direction -0.605402 -0.653903 0.45376   
     length 2.45455  
     axis 0 0 0  XYZ 
  end
  begin
     id 7 
     name rfemur
     direction -0.34202 -0.939693 0   
     length 6.64523   
     axis 0 0 -20   XYZ
    dof rx ry rz
    limits (-160.0 20.0)
           (-70.0 70.0)
           (-70.0 60.0)
  end
  begin
     id 8 
     name rtibia
     direction -0.34202 -0.939693 0   
     length 7.3339   
     axis 0 0 -20   XYZ
    dof rx
    limits (-10.0 170.0)
 end
 begin
     id 9 
     name rfoot
     direction -0.120854 -0.332043 0.93549   
     length 2.23135  
     axis -90 -7.62852e-016 -20   XYZ
    dof rx rz
    limits (-45.0 90.0)
           (-20.0 70.0)
  end
  begin
     id 10 
     name rtoes
     direction -1.53563e-011 -4.21914e-011 1   
     length 1.10614   
     axis -90 -7.62852e-016 -20   XYZ
    dof rx
    limits (-90.0 20.0)
  end
  begin
     id 11 
     name lowerback
     direction 0.0319682 0.998615 -0.0417941   
     length 2.02718   
     axis 0 0 0   XYZ
    dof rx ry rz
    limits (-20.0 45.0)
           (-30.0 30.0)
           (-30.0 30.0)
  end
  begin
     id 12 
     name upperback
     direction 7.63181e-005 0.995808 0.0914691   
     length 1.97539   
     axis 0 0 0   XYZ
    dof rx ry rz
    limits (-20.0 45.0)
           (-30.0 30.0)
           (-30.0 30.0)
  end
  begin
     id 13 
     name thorax
     direction -0.016423 0.993627 0.111514   
     length 2.00349   
     axis 0 0 0   XYZ
    dof rx ry rz
    limits (-20.0 45.0)
           (-30.0 30.0)
           (-30.0 30.0)
  end
  begin
     id 14 
     name lowerneck
     direction -0.174763 0.981668 -0.0760716   
     length 1.71436   
     axis 0 0 0   XYZ
    dof rx ry rz
    limits (-20.0 45.0)
           (-30.0 30.0)
           (-30.0 30.0)
  end
  begin
     id 15 
     name upperneck
     direction 0.345458 0.934587 -0.0848868   
     length 1.72805   
     axis 0 0 0   XYZ
    dof rx ry rz
    limits (-20.0 45.0)
           (-30.0 30.0)
           (-30.0 30.0)
  end
  begin
     id 16
     name head
     direction 0.13001 0.989848 -0.0574291  
     length 1.767  
     axis 0 0 0   XYZ
    dof rx ry rz
    limits (-20.0 45.0)
           (-30.0 30.0)
           (-30.0 30.0)
  end
  begin
     id 17 
     name lclavicle
     direction 0.952951 0.290122 0.0878234  
     length 3.54654  
     axis 0 0 0   XYZ
    dof ry rz
    limits (-20.0 10.0)
           (0.0 20.0)
  end
  begin
     id 18 
     name lhumerus
     direction 1 -4.48957e-011 -4.56525e-028   
     length 5.19807   
     axis 180 -30 -90   XYZ
    dof rx ry rz
    limits (-60.0 90.0)
           (-90.0 90.0)
           (-90.0 90.0)
  end
  begin
     id 19
     name lradius
     direction 1 -4.48979e-011 -2.0317e-027   
     length 3.0937   
     axis 180 -30 -90   XYZ
    dof rx
    limits (-10.0 170.0)
  end
  begin
     id 20
     name lwrist
     direction 1 -4.48953e-011 -3.05809e-027   
     length 1.54685   
     axis 8.48514e-016 90 90   XYZ
    dof ry
    limits (-180.0 0.0)
 end
  begin
     id 21 
     name lhand
     direction 1 -4.48952e-011 -6.11639e-027   
     length 0.672632   
     axis 3.9013e-015 90 90   XYZ
    dof rx rz
    limits (-90.0 90.0)
           (-45.0 45.0)
  end
  begin
     id 22 
     name lfingers
     direction 1 -4.48925e-011 -1.22426e-026   
     length 0.542293   
     axis 7.80276e-015 90 90   XYZ
    dof rx
    limits (0.0 90.0)
  end
  begin
     id 23
     name lthumb
     direction 0.707107 -6.3486e-011 0.707107   
     length 0.778628   
     axis -90 45 5.37419e-014   XYZ
    dof rx rz
    limits (-45.0 45.0)
           (-45.0 45.0)
  end
  begin
     id 24 
     name rclavicle
     direction -0.960732 0.273675 -0.0457849   
     length 3.52079  
     axis 0 0 0   XYZ 
    dof ry rz
    limits (-10.0 20.0)
           (-20.0 0.0)
  end
  begin
     id 25 
     name rhumerus
     direction -1 -4.48976e-011 -1.63613e-027  
     length 5.45222   
     axis 180 30 90   XYZ
    dof rx ry rz
    limits (-90.0 60.0)
           (-90.0 90.0)
           (-90.0 90.0)
  end
  begin
     id 26 
     name rradius
     direction -1 -4.48957e-011 -7.00033e-028   
     length 3.01284   
     axis 180 30 90   XYZ
    dof rx
    limits (-10.0 170.0)
  end
  begin
     id 27 
     name rwrist
     direction -1 -4.48983e-011 -3.05543e-027   
     length 1.50642   
     axis 8.48514e-016 -90 -90   XYZ
    dof ry
    limits (-180.0 0.0)
  end
  begin
     id 28
     name rhand
     direction -1 -4.48984e-011 -6.11072e-027   
     length 0.622296   
     axis 3.9013e-015 -90 -90   XYZ
    dof rx rz
    limits (-90.0 90.0)
           (-45.0 45.0)
  end
  begin
     id 29
     name rfingers
     direction -1 -4.48865e-011 -1.22637e-026   
     length 0.501711   
     axis 7.80276e-015 -90 -90   XYZ
    dof rx
    limits (0.0 90.0)
  end
  begin
     id 30
     name rthumb
     direction -0.707107 -6.34932e-011 0.707107   
     length 0.72036   
     axis -90 -45 -5.37419e-014   XYZ
    dof rx rz
    limits (-45.0 45.0)
           (-45.0 45.0)
  end
:hierarchy
  begin
    root lhipjoint rhipjoint lowerback
    lhipjoint lfemur
    lfemur ltibia
    ltibia lfoot
    lfoot ltoes
    rhipjoint rfemur
    rfemur rtibia
    rtibia rfoot
    rfoot rtoes
    lowerback upperback
    upperback thorax
    thorax lowerneck lclavicle rclavicle
    lowerneck upperneck
    upperneck head
    lclavicle lhumerus
    lhumerus lradius
    lradius lwrist
    lwrist lhand lthumb
    lhand lfingers
    rclavicle rhumerus
    rhumerus rradius
    rradius rwrist
    rwrist rhand rthumb
    rhand rfingers
  end

#!OML:ASF H:\Not Pregnant\Project 1\Capture day 1\Session 1\non-pregnant.ASF
:FULLY-SPECIFIED
:DEGREES
182
root -3.52434 15.7237 34.2585 -224.477 -81.627 -61.8081
lowerback 21.8992 3.85819 12.6193
upperback 10.2142 6.30794 2.64176
thorax 0.310522 3.09702 -5.47379
lowerneck 19.2342 -7.93512 -27.7385
upperneck 14.7015 -18.6615 38.6066
head 8.26199 -10.6467 21.1467
rclavicle -3.02153e-014 -3.02153e-014
rhumerus -9.21397 73.7517 -86.9486
rradius 98.0881
rwrist -26.3094
rhand -10.9042 -5.28887
rfingers 7.12502
rthumb 15.1128 -34.7171
lclavicle -3.02153e-014 -3.02153e-014
lhumerus -98.6788 -36.8656 159.649
lradius 83.5375
lwrist 107.757
lhand 6.31816 -0.919567
lfingers 7.12502
lthumb 31.6264 26.3606
rfemur -87.2424 8.78725 14.1722
rtibia 10.5597
rfoot 3.67662 -9.33783
rtoes -13.7703
lfemur -91.2181 8.65314 -3.11013
ltibia 12.1789
lfoot 6.56046 0.0496054
ltoes -21.0947
183
root -3.51988 15.7231 34.2607 -224.375 -81.6304 -61.882
lowerback 21.903 3.83111 12.6265
upperback 10.2404 6.26978 2.66776
thorax 0.32902 3.07849 -5.44206
lowerneck 19.1811 -7.92122 -27.7747
upperneck 14.6689 -18.6303 38.5946
head 8.2483 -10.629 21.1401
rclavicle 6.67916e-014 3.61788e-014
rhumerus -9.15787 74.0806 -86.8776
rradius 98.2007
rwrist -26.8538
rhand -12.8078 -5.2908
rfingers 7.12502
rthumb 13.2785 -34.8478
lclavicle 6.67916e-014 3.61788e-014
lhumerus -98.5495 -36.8696 159.58
lradius 83.5156
lwrist 107.785
lhand 6.38605 -0.854947
lfingers 7.12502
lthumb 31.6911 26.4125
rfemur -87.2564 8.75396 14.3344
rtibia 10.5223
rfoot 3.69308 -9.17058
rtoes -13.8405
lfemur -91.2873 8.65622 -3.16398
ltibia 12.2027
lfoot 6.57499 0.0406671
ltoes -20.9666
184
root -3.51545 15.7229 34.2632 -224.196 -81.6403 -62.0488
lowerback 21.9155 3.79996 12.6232
upperback 10.2623 6.22683 2.6866
thorax 0.336811 3.05699 -5.41269
lowerneck 19.1303 -7.90058 -27.8189
upperneck 14.6526 -18.5974 38.5824
head 8.24033 -10.6118 21.1399
rclavicle -4.77083e-015 1.55052e-014
rhumerus -9.07935 74.4104 -86.8029
rradius 98.2948
rwrist -27.371
rhand -12.6409 -5.25942
rfingers 7.12502
rthumb 13.4393 -34.8059
lclavicle -4.77083e-015 1.55052e-014
lhumerus -98.4134 -36.864 159.503
lradius 83.4925
lwrist 107.796
lhand 6.43794 -0.830984
lfingers 7.12502
lthumb 31.7405 26.4267
rfemur -87.2544 8.71855 14.5288
rtibia 10.4938
rfoot 3.69665 -8.96457
rtoes -13.9077
lfemur -91.3329 8.65623 -3.23025
ltibia 12.2189
lfoot 6.58446 0.0299871
ltoes -20.8671
185
root -3.51088 15.7228 34.2662 -223.963 -81.6561 -62.2838
lowerback 21.9269 3.76973 12.6182
upperback 10.283 6.18487 2.69921
thorax 0.344667 3.03627 -5.38919
lowerneck 19.0776 -7.88223 -27.8611
upperneck 14.6476 -18.5714 38.5721
head 8.24052 -10.5983 21.1426
rclavicle 2.22639e-014 -1.55052e-014
rhumerus -8.94512 74.6781 -86.689
rradius 98.3536
rwrist -27.7361
rhand -10.7711 -5.24938
rfingers 7.12502
rthumb 15.241 -34.6679
lclavicle 2.22639e-014 -1.55052e-014
lhumerus -98.287 -36.863 159.434
lradius 83.4686
lwrist 107.799
lhand 6.47467 -0.844417
lfingers 7.12502
lthumb 31.7755 26.4063
rfemur -87.2437 8.68028 14.7446
rtibia 10.4797
rfoot 3.68739 -8.73233
rtoes -13.9824
lfemur -91.3578 8.65249 -3.30635
ltibia 12.2246
lfoot 6.59151 0.0157551
ltoes -20.786
186
root -3.50601 15.7225 34.2697 -223.706 -81.6718 -62.5545
lowerback 21.9293 3.74489 12.6186
upperback 10.3063 6.14892 2.70882
thorax 0.362116 3.01942 -5.3719
lowerneck 19.0178 -7.8736 -27.8929
upperneck 14.6478 -18.5577 38.5618
head 8.24862 -10.5894 21.1409
rclavicle -9.38264e-014 -6.24184e-014
rhumerus -8.74189 74.8568 -86.5157
rradius 98.3764
rwrist -27.9102
rhand -8.35254 -5.271
rfingers 7.12502
rthumb 17.5696 -34.4971
lclavicle -9.38264e-014 -6.24184e-014
lhumerus -98.1815 -36.8788 159.383
lradius 83.4476
lwrist 107.793
lhand 6.5033 -0.877221
lfingers 7.12502
lthumb 31.8028 26.3681
rfemur -87.2275 8.64369 14.9703
rtibia 10.4775
rfoot 3.67096 -8.4929
rtoes -14.0649
lfemur -91.369 8.64857 -3.3848
ltibia 12.2269
lfoot 6.59294 -0.00518979
ltoes -20.7375
187
root -3.5009 15.7221 34.2735 -223.417 -81.6898 -62.8698
lowerback 21.9241 3.73128 12.6226
upperback 10.3283 6.12685 2.71735
thorax 0.38515 3.0098 -5.35938
lowerneck 18.9688 -7.87493 -27.9117
upperneck 14.65 -18.5586 38.557
head 8.26185 -10.5878 21.1395
rclavicle 1.43125e-014 -1.11319e-014
rhumerus -8.50652 74.9114 -86.3119
rradius 98.3578
rwrist -27.8385
rhand -4.61469 -5.30517
rfingers 7.12502
rthumb 21.1636 -34.17
lclavicle 1.43125e-014 -1.11319e-014
lhumerus -98.1171 -36.9108 159.371
lradius 83.427
lwrist 107.788
lhand 6.53363 -0.907016
lfingers 7.12502
lthumb 31.8317 26.3325
rfemur -87.2066 8.60985 15.1806
rtibia 10.4858
rfoot 3.64866 -8.26901
rtoes -14.1278
lfemur -91.3682 8.64357 -3.46806
ltibia 12.2317
lfoot 6.58315 -0.0307558
ltoes -20.6774
